Coordinates
version=1
nRows=24
nColumns=24
inDegrees=yes

Units are S.I. units (second, meters, Newtons, ...)
Angles are in degrees.

endheader
time	pelvis_tilt	pelvis_list	pelvis_rotation	pelvis_tx	pelvis_ty	pelvis_tz	hip_flexion_r	hip_adduction_r	hip_rotation_r	knee_angle_r	ankle_angle_r	subtalar_angle_r	mtp_angle_r	hip_flexion_l	hip_adduction_l	hip_rotation_l	knee_angle_l	ankle_angle_l	subtalar_angle_l	mtp_angle_l	lumbar_extension	lumbar_bending	lumbar_rotation
      1.74200000	      0.77340254	      2.08585998	     -2.94622672	      1.27764734	      1.00648732	      0.27243416	     20.23940765	     -6.73874125	     -6.01494157	    -77.81646459	     -4.21132555	     -5.17248077	      0.65804734	     14.82721962	      3.23408819	     -6.36304433	    -18.75431863	      2.50019790	    -12.30336543	     -7.25471342	    -11.18218381	     -5.98477852	      0.81240111
      1.74616667	      0.92997403	      1.94553201	     -2.63674879	      1.28230721	      1.00784862	      0.27161487	     20.72847719	     -6.62158686	     -6.33655959	    -77.64735761	     -3.84809368	     -5.03338015	      0.72077263	     14.20439929	      3.22522743	     -6.04854012	    -18.42408952	      2.55517194	    -12.23111643	     -7.25054332	    -11.42401666	     -5.73295889	      0.52129211
      1.75033333	      1.07216416	      1.80770900	     -2.34449403	      1.28702558	      1.00918792	      0.27081960	     21.21426422	     -6.50931237	     -6.65211465	    -77.42414749	     -3.50894230	     -4.92068159	      0.78015348	     13.58617491	      3.20959409	     -5.74464894	    -18.08508440	      2.59608371	    -12.18321108	     -7.24721732	    -11.63400742	     -5.49105847	      0.24444678
      1.75450000	      1.22732950	      1.68307652	     -2.08066006	      1.29171433	      1.01051657	      0.27010203	     21.68546643	     -6.40368247	     -6.94058864	    -77.16277834	     -3.16347179	     -4.80013537	      0.83127477	     12.94599383	      3.19279431	     -5.47460719	    -17.72085222	      2.63336653	    -12.13642712	     -7.24032377	    -11.85849164	     -5.27684217	      0.02170258
      1.75866667	      1.37649533	      1.55909725	     -1.81141995	      1.29636763	      1.01181065	      0.26939989	     22.15156873	     -6.30215104	     -7.23489570	    -76.85811645	     -2.84110524	     -4.70361812	      0.87510543	     12.31252736	      3.16970401	     -5.20070718	    -17.35016864	      2.66604860	    -12.06846674	     -7.23402550	    -12.07958245	     -5.07039982	     -0.22852082
      1.76283333	      1.53250780	      1.42604418	     -1.55662327	      1.30102703	      1.01309506	      0.26871894	     22.59563113	     -6.19359277	     -7.52915378	    -76.50054856	     -2.48900162	     -4.59821106	      0.91141606	     11.67514229	      3.12676035	     -4.95057892	    -16.99246504	      2.70480982	    -12.00694630	     -7.22855416	    -12.30233638	     -4.84121480	     -0.43943707
      1.76700000	      1.70017912	      1.32101177	     -1.31834169	      1.30568120	      1.01437292	      0.26804062	     23.01527554	     -6.12021009	     -7.80579955	    -76.10600865	     -2.15575924	     -4.50983346	      0.94290552	     11.00900035	      3.11080981	     -4.71814637	    -16.58972367	      2.70768281	    -11.98882791	     -7.22247220	    -12.53222974	     -4.62521313	     -0.66213948
      1.77116667	      1.84812012	      1.18917487	     -1.05655618	      1.31031143	      1.01558956	      0.26736686	     23.44048013	     -6.02583921	     -8.12023465	    -75.65883420	     -1.86125595	     -4.47218410	      0.97550924	     10.37912315	      3.05896259	     -4.45939524	    -16.22317638	      2.74493124	    -11.93527330	     -7.21150561	    -12.74420200	     -4.39433725	     -0.88234967
      1.77533333	      1.99414390	      1.08625211	     -0.84234664	      1.31494636	      1.01675884	      0.26677934	     23.86392684	     -5.94798365	     -8.37764458	    -75.18287173	     -1.52545291	     -4.35961198	      0.99951335	      9.74237023	      3.02400976	     -4.25312463	    -15.83324235	      2.77339380	    -11.88553819	     -7.20295055	    -12.94785113	     -4.20121695	     -1.05898828
      1.77950000	      2.09855281	      0.97895528	     -0.64858147	      1.31955917	      1.01780299	      0.26625787	     24.32988148	     -5.85569481	     -8.61297200	    -74.67289254	     -1.18026305	     -4.19598069	      1.01132579	      9.16414514	      2.97031991	     -4.08653170	    -15.47422560	      2.83212977	    -11.81558444	     -7.19464075	    -13.10012343	     -4.00334969	     -1.19166077
      1.78366667	      2.14572418	      0.90702652	     -0.51199463	      1.32411853	      1.01867559	      0.26595020	     24.87593964	     -5.75909064	     -8.77861155	    -74.15770364	     -0.81495045	     -4.15859897	      1.01543989	      8.65290296	      2.92956664	     -3.99341866	    -15.11397401	      2.83031200	    -11.74943874	     -7.19117336	    -13.18794083	     -3.87099614	     -1.26159549
      1.78783333	      2.34834439	      0.77477118	     -0.26619997	      1.32871695	      1.01987293	      0.26528402	     25.16387290	     -5.68737451	     -9.09257227	    -73.50988447	     -0.53059455	     -3.94118859	      1.01344377	      7.96271958	      2.85958358	     -3.74720265	    -14.73839656	      2.92407028	    -11.69195491	     -7.17816876	    -13.45953628	     -3.62322466	     -1.48953460
      1.79200000	      2.43887409	      0.68310757	     -0.11001135	      1.33330753	      1.02080908	      0.26488604	     25.59972566	     -5.60118994	     -9.30113434	    -72.86384873	     -0.20165357	     -3.81485290	      1.00630079	      7.39254153	      2.80469759	     -3.59956128	    -14.35116656	      2.93446066	    -11.67145089	     -7.16836802	    -13.58985803	     -3.46215889	     -1.62092912
      1.79616667	      2.44515216	      0.62092314	      0.01283183	      1.33787578	      1.02151146	      0.26463399	     26.13911073	     -5.51686285	     -9.45369786	    -72.21842685	      0.13249521	     -3.74140735	      1.00378026	      6.93551902	      2.76256939	     -3.51496141	    -14.00960520	      2.95027443	    -11.60390829	     -7.16298447	    -13.63272166	     -3.34750773	     -1.66990066
      1.80033333	      2.57724159	      0.52180028	      0.20966485	      1.34243173	      1.02243930	      0.26411620	     26.47964477	     -5.46347471	     -9.71476892	    -71.46842863	      0.42044861	     -3.49766802	      0.98661203	      6.33946830	      2.70232877	     -3.33393225	    -13.66127402	      3.04938865	    -11.54647006	     -7.14852697	    -13.81857224	     -3.14376783	     -1.82989754
      1.80450000	      2.64342058	      0.44295384	      0.36272397	      1.34698343	      1.02319643	      0.26375566	     26.89146938	     -5.39594524	     -9.91842954	    -70.70292066	      0.73066206	     -3.33750855	      0.96449315	      5.82135807	      2.64989261	     -3.18500117	    -13.32903657	      3.08487737	    -11.53083973	     -7.13501495	    -13.92165053	     -2.99451281	     -1.94123463
      1.80866667	      2.65865818	      0.38590551	      0.47990736	      1.35147771	      1.02381019	      0.26350034	     27.36589406	     -5.32809939	    -10.07127041	    -69.91261837	      1.02574610	     -3.17989976	      0.94467531	      5.36371951	      2.60983770	     -3.07773200	    -12.99314938	      3.12634278	    -11.47931286	     -7.12211092	    -13.98383967	     -2.86955607	     -2.01437799
      1.81283333	      2.71438433	      0.32187429	      0.62607658	      1.35600880	      1.02446145	      0.26318115	     27.75708558	     -5.27614018	    -10.26379475	    -69.06521402	      1.30226811	     -2.99015676	      0.91547068	      4.87196591	      2.56317417	     -2.95646078	    -12.68445289	      3.19950968	    -11.42795610	     -7.10604509	    -14.07754134	     -2.73691872	     -2.11472560
      1.81700000	      2.66850188	      0.30223483	      0.70478623	      1.36054036	      1.02486744	      0.26305630	     28.27615729	     -5.22411630	    -10.36504061	    -68.21720508	      1.59345339	     -2.90144073	      0.90769211	      4.49081218	      2.54926969	     -2.91520588	    -12.37545944	      3.23443903	    -11.38104422	     -7.10031295	    -14.05568181	     -2.66180818	     -2.14901457
      1.82116667	      2.64532289	      0.24627584	      0.81399919	      1.36509363	      1.02531943	      0.26286850	     28.71919704	     -5.15362208	    -10.50815767	    -67.28520671	      1.86281329	     -2.68771603	      0.89531072	      4.09385737	      2.49714638	     -2.84194483	    -12.09458860	      3.29711348	    -11.32323513	     -7.09144226	    -14.05163578	     -2.56488859	     -2.19678034
      1.82533333	      2.72313374	      0.18817701	      0.98374611	      1.36959044	      1.02590713	      0.26247861	     29.01285302	     -5.13110038	    -10.72507150	    -66.29162185	      2.08474794	     -2.45554931	      0.84963775	      3.59274295	      2.45573717	     -2.67441508	    -11.81157833	      3.42302101	    -11.25176892	     -7.06564676	    -14.18598820	     -2.41832737	     -2.31568938
      1.82950000	      2.66149424	      0.17090487	      1.05147563	      1.37411609	      1.02620233	      0.26240239	     29.47793827	     -5.07320291	    -10.81099335	    -65.29692696	      2.33369463	     -2.35324176	      0.83480711	      3.23679007	      2.43778626	     -2.63566714	    -11.51521089	      3.44704531	    -11.21858108	     -7.05770846	    -14.14764986	     -2.35980739	     -2.36276466
      1.83366667	      2.62419434	      0.15349694	      1.13553830	      1.37864741	      1.02648987	      0.26228023	     29.88688809	     -5.02774209	    -10.90929923	    -64.25321498	      2.55979589	     -2.17659050	      0.81551483	      2.86637066	      2.41914333	     -2.59050448	    -11.25807305	      3.54069527	    -11.14905244	     -7.04602946	    -14.13251399	     -2.29354110	     -2.40404745
      1.83783333	      2.65528069	      0.11134253	      1.28728286	      1.38320682	      1.02690397	      0.26196762	     30.16459124	     -5.00705704	    -11.09886863	    -63.13287820	      2.74384782	     -2.00759302	      0.75552062	      2.42066436	      2.38213896	     -2.46174138	    -10.98869199	      3.66860025	    -11.05084254	     -7.01288930	    -14.20501314	     -2.16918663	     -2.50013263
